<svg width="247" height="247" viewBox="0 0 247 247" fill="none" xmlns="http://www.w3.org/2000/svg">
<path d="M222.678 80.9006L218.581 78.5934C217.811 78.14 217.113 77.8403 216.487 77.6944C215.846 77.5428 215.123 77.6566 214.317 78.0359C213.691 78.3303 213.239 78.8411 212.959 79.5684C212.669 80.3006 212.734 81.1121 213.153 82.0028C213.442 82.6178 213.83 83.07 214.316 83.3594C214.802 83.6488 215.333 83.7872 215.91 83.7748C216.476 83.7673 217.041 83.6313 217.603 83.3668C218.08 83.1423 218.518 82.7936 218.917 82.3208C219.316 81.848 219.694 81.2751 220.051 80.6021C220.408 79.9291 220.769 79.1828 221.134 78.3633L229.115 61.2222L230.776 64.7531L224.254 78.7992C223.695 80.0336 223.176 81.1457 222.696 82.1355C222.206 83.1304 221.68 83.9802 221.118 84.685C220.551 85.3792 219.875 85.911 219.09 86.2802C217.881 86.8491 216.751 87.0895 215.7 87.0016C214.632 86.9081 213.677 86.5289 212.833 85.864C211.989 85.1991 211.293 84.2835 210.744 83.1171C210.21 81.9826 209.979 80.8998 210.05 79.8687C210.107 78.8321 210.401 77.9165 210.934 77.1218C211.456 76.3322 212.157 75.7303 213.037 75.3161C213.779 74.9668 214.509 74.785 215.228 74.7707C215.936 74.7613 216.646 74.8804 217.358 75.128C218.066 75.365 218.8 75.6866 219.561 76.0926L225.143 79.0799C226.065 79.5788 226.862 79.8835 227.536 79.9939C228.209 80.1043 228.767 80.1202 229.209 80.0416C229.647 79.9524 229.982 79.8529 230.215 79.7431C230.968 79.3889 231.58 78.9002 232.051 78.277C232.522 77.6539 232.791 76.9186 232.858 76.0709C232.91 75.2177 232.696 74.2821 232.217 73.2642C231.798 72.3735 231.19 71.6041 230.393 70.9561C229.58 70.3024 228.64 69.8187 227.573 69.505C226.495 69.1963 225.339 69.0928 224.105 69.1944C222.855 69.2905 221.588 69.6404 220.305 70.2442L219.063 67.604C220.113 67.11 221.151 66.7442 222.179 66.5065C223.207 66.2689 224.224 66.1725 225.229 66.2174C226.219 66.2567 227.195 66.445 228.157 66.7824C228.297 66.833 228.443 66.8548 228.596 66.8479C228.748 66.8411 228.894 66.8629 229.034 66.9134C230.267 67.3045 231.376 67.9809 232.359 68.9427C233.327 69.8988 234.086 70.9601 234.635 72.1265C235.358 73.6639 235.704 75.1269 235.671 76.5153C235.633 77.8931 235.263 79.1162 234.561 80.1847C233.859 81.2531 232.872 82.0868 231.6 82.6855C230.624 83.1446 229.668 83.342 228.731 83.2778C227.79 83.203 226.823 82.9519 225.832 82.5247C224.836 82.0869 223.785 81.5455 222.678 80.9006Z" fill="black"/>
<path d="M229.821 111.046L244.641 109.016L245.083 112.238L226.239 114.819L225.822 111.771L229.821 111.046ZM234.611 111.17L234.742 112.519C233.452 112.684 232.235 112.655 231.093 112.433C229.939 112.212 228.91 111.821 228.005 111.259C227.1 110.697 226.363 109.982 225.795 109.113C225.213 108.235 224.844 107.227 224.689 106.089C224.561 105.16 224.575 104.307 224.728 103.529C224.87 102.752 225.178 102.065 225.653 101.468C226.125 100.859 226.778 100.356 227.61 99.958C228.431 99.5617 229.463 99.2785 230.705 99.1083L243.053 97.4173L243.497 100.657L231.114 102.352C230.127 102.488 229.358 102.741 228.805 103.112C228.241 103.485 227.864 103.969 227.673 104.562C227.471 105.158 227.425 105.862 227.537 106.675C227.646 107.476 227.915 108.184 228.342 108.8C228.768 109.404 229.31 109.903 229.967 110.298C230.623 110.682 231.352 110.954 232.155 111.116C232.944 111.269 233.763 111.287 234.611 111.17Z" fill="black"/>
<path d="M241.365 136.786L226.168 130.648L226.342 128.51L229.408 129.183L244.861 135.431L244.691 137.515L241.365 136.786ZM225.505 138.794L241.611 135.925L244.824 135.886L244.646 138.076L225.242 142.036L225.505 138.794ZM242.366 125.122L227.043 119.89L227.305 116.666L245.814 123.709L245.638 125.882L242.366 125.122ZM226.38 128.037L242.098 124.518L245.769 124.27L245.601 126.337L229.295 130.144L226.195 130.315L226.38 128.037Z" fill="black"/>
<path d="M229.166 162.88L228.78 162.761C227.47 162.356 226.314 161.79 225.312 161.064C224.299 160.334 223.489 159.482 222.882 158.509C222.263 157.533 221.882 156.465 221.738 155.304C221.583 154.14 221.701 152.925 222.092 151.66C222.486 150.384 223.076 149.309 223.861 148.435C224.638 147.547 225.558 146.875 226.619 146.418C227.672 145.946 228.823 145.695 230.072 145.663C231.309 145.629 232.583 145.814 233.893 146.219L234.279 146.338C235.589 146.743 236.745 147.309 237.747 148.036C238.749 148.762 239.557 149.619 240.172 150.607C240.779 151.579 241.16 152.648 241.315 153.812C241.463 154.961 241.34 156.174 240.945 157.451C240.551 158.727 239.966 159.804 239.192 160.681C238.407 161.554 237.488 162.227 236.435 162.698C235.373 163.155 234.224 163.401 232.987 163.436C231.75 163.471 230.476 163.285 229.166 162.88ZM229.74 159.654L230.126 159.774C231.033 160.054 231.923 160.212 232.794 160.249C233.655 160.282 234.459 160.181 235.206 159.945C235.957 159.699 236.612 159.307 237.171 158.768C237.719 158.226 238.126 157.524 238.392 156.662C238.655 155.811 238.712 155.013 238.562 154.267C238.405 153.507 238.084 152.819 237.599 152.203C237.115 151.587 236.508 151.05 235.779 150.592C235.042 150.119 234.22 149.742 233.313 149.462L232.927 149.343C232.031 149.066 231.152 148.916 230.287 148.895C229.416 148.858 228.604 148.963 227.854 149.209C227.095 149.441 226.436 149.826 225.877 150.365C225.322 150.892 224.911 151.587 224.644 152.449C224.381 153.3 224.329 154.106 224.486 154.866C224.647 155.615 224.974 156.304 225.466 156.935C225.95 157.551 226.562 158.089 227.303 158.551C228.032 159.01 228.844 159.377 229.74 159.654Z" fill="black"/>
<path d="M230.85 173.263L210.246 162.366L211.774 159.475L235.642 172.099L234.245 174.74L230.85 173.263ZM219.91 181.954L219.584 181.781C218.299 181.102 217.216 180.33 216.334 179.466C215.448 178.586 214.779 177.656 214.33 176.676C213.886 175.685 213.676 174.679 213.699 173.658C213.718 172.62 213.993 171.599 214.524 170.594C215.083 169.537 215.757 168.714 216.546 168.124C217.331 167.518 218.22 167.127 219.215 166.95C220.205 166.758 221.277 166.762 222.431 166.961C223.585 167.16 224.816 167.526 226.125 168.06L227.555 168.816C228.727 169.582 229.718 170.391 230.527 171.243C231.341 172.084 231.947 172.968 232.345 173.895C232.749 174.811 232.926 175.766 232.877 176.761C232.818 177.751 232.506 178.779 231.942 179.846C231.422 180.83 230.732 181.619 229.875 182.213C229.023 182.796 228.057 183.18 226.979 183.365C225.905 183.54 224.766 183.514 223.56 183.287C222.349 183.045 221.133 182.6 219.91 181.954ZM221.113 178.891L221.439 179.063C222.278 179.507 223.109 179.841 223.932 180.064C224.761 180.277 225.551 180.35 226.302 180.283C227.053 180.216 227.737 179.988 228.354 179.599C228.961 179.204 229.47 178.618 229.88 177.841C230.384 176.888 230.596 175.999 230.515 175.174C230.44 174.339 230.17 173.559 229.704 172.836C229.238 172.112 228.672 171.441 228.004 170.823L224.259 168.843C223.624 168.666 222.979 168.557 222.325 168.515C221.665 168.458 221.03 168.507 220.418 168.661C219.802 168.799 219.227 169.071 218.693 169.478C218.165 169.875 217.71 170.436 217.326 171.161C216.91 171.949 216.717 172.715 216.747 173.46C216.772 174.189 216.974 174.886 217.352 175.549C217.719 176.208 218.229 176.822 218.882 177.393C219.53 177.948 220.273 178.447 221.113 178.891Z" fill="black"/>
<path d="M197.527 182.833L218.097 200.323L215.979 202.814L195.409 185.324L197.527 182.833Z" fill="black"/>
<path d="M192.883 188.196L212.093 207.169L209.796 209.496L190.586 190.522L192.883 188.196Z" fill="black"/>
<path d="M187.448 216.326L187.199 216.007C186.357 214.925 185.732 213.8 185.326 212.631C184.913 211.452 184.736 210.291 184.794 209.145C184.846 207.991 185.144 206.897 185.69 205.862C186.229 204.819 187.02 203.89 188.065 203.076C189.119 202.255 190.217 201.711 191.361 201.443C192.507 201.16 193.646 201.134 194.777 201.366C195.911 201.582 196.999 202.034 198.041 202.723C199.075 203.402 200.014 204.283 200.857 205.364L201.105 205.683C201.948 206.765 202.572 207.89 202.979 209.06C203.385 210.229 203.557 211.394 203.497 212.556C203.438 213.701 203.139 214.795 202.601 215.839C202.064 216.866 201.269 217.79 200.215 218.611C199.161 219.433 198.066 219.981 196.93 220.258C195.786 220.525 194.647 220.551 193.513 220.335C192.382 220.103 191.298 219.647 190.264 218.967C189.229 218.288 188.291 217.407 187.448 216.326ZM189.764 214.008L190.013 214.327C190.596 215.076 191.235 215.714 191.929 216.243C192.617 216.763 193.334 217.14 194.081 217.374C194.838 217.602 195.6 217.655 196.366 217.533C197.126 217.401 197.861 217.058 198.573 216.504C199.275 215.956 199.778 215.334 200.082 214.637C200.388 213.923 200.518 213.176 200.473 212.393C200.428 211.611 200.238 210.824 199.902 210.031C199.568 209.221 199.11 208.442 198.526 207.693L198.278 207.374C197.702 206.635 197.065 206.009 196.369 205.497C195.675 204.968 194.949 204.59 194.193 204.362C193.438 204.118 192.677 204.057 191.911 204.179C191.153 204.294 190.419 204.629 189.707 205.183C189.005 205.731 188.5 206.361 188.195 207.075C187.898 207.781 187.772 208.534 187.815 209.332C187.859 210.114 188.053 210.907 188.396 211.709C188.732 212.502 189.188 213.269 189.764 214.008Z" fill="black"/>
<path d="M175.743 215.502L183.592 229.48L180.756 231.073L171.444 214.489L174.203 212.939L175.743 215.502ZM179.409 209.896L180.874 212.54C180.61 212.621 180.368 212.717 180.148 212.827C179.932 212.921 179.691 213.043 179.425 213.192C178.771 213.56 178.251 213.986 177.866 214.471C177.48 214.957 177.216 215.481 177.075 216.044C176.934 216.607 176.905 217.201 176.988 217.827C177.075 218.437 177.257 219.06 177.534 219.697L176.995 220.605C176.433 219.603 176.002 218.609 175.703 217.621C175.414 216.628 175.289 215.676 175.33 214.766C175.364 213.846 175.597 213.017 176.029 212.277C176.465 211.522 177.132 210.892 178.031 210.387C178.236 210.272 178.485 210.165 178.78 210.067C179.068 209.959 179.278 209.902 179.409 209.896Z" fill="black"/>
<path d="M168.245 234.351C168.967 234.074 169.578 233.671 170.078 233.141C170.578 232.611 170.926 232.013 171.123 231.348C171.316 230.672 171.312 229.989 171.111 229.301L174 228.195C174.348 229.266 174.367 230.382 174.058 231.542C173.756 232.686 173.187 233.739 172.35 234.699C171.509 235.649 170.459 236.364 169.2 236.846C167.865 237.357 166.61 237.568 165.433 237.479C164.268 237.386 163.2 237.054 162.229 236.485C161.269 235.911 160.422 235.157 159.687 234.221C158.959 233.27 158.367 232.198 157.91 231.005L157.646 230.315C157.189 229.123 156.916 227.935 156.827 226.752C156.745 225.553 156.87 224.42 157.201 223.352C157.543 222.28 158.117 221.32 158.922 220.472C159.737 219.62 160.813 218.939 162.148 218.428C163.538 217.895 164.862 217.715 166.119 217.886C167.373 218.046 168.481 218.5 169.445 219.247C170.416 219.98 171.163 220.949 171.687 222.154L168.798 223.26C168.462 222.547 168.001 221.965 167.414 221.512C166.837 221.055 166.175 220.769 165.428 220.654C164.688 220.523 163.913 220.613 163.103 220.923C162.173 221.279 161.462 221.765 160.97 222.38C160.484 222.98 160.175 223.663 160.041 224.429C159.915 225.18 159.914 225.965 160.039 226.783C160.171 227.586 160.386 228.376 160.683 229.153L160.947 229.842C161.245 230.619 161.614 231.356 162.057 232.052C162.499 232.749 163.018 233.334 163.614 233.809C164.221 234.279 164.907 234.581 165.674 234.714C166.447 234.832 167.304 234.711 168.245 234.351Z" fill="black"/>
<path d="M152.33 236.873C152.239 236.413 152.051 236.009 151.766 235.659C151.491 235.296 151.011 235.015 150.326 234.816C149.65 234.604 148.674 234.5 147.396 234.503C146.318 234.49 145.33 234.418 144.431 234.286C143.545 234.152 142.766 233.931 142.095 233.622C141.436 233.311 140.894 232.899 140.469 232.386C140.044 231.873 139.755 231.232 139.602 230.462C139.456 229.726 139.478 228.999 139.67 228.28C139.873 227.558 140.223 226.885 140.72 226.26C141.229 225.634 141.88 225.092 142.673 224.635C143.466 224.179 144.386 223.847 145.432 223.638C146.926 223.341 148.254 223.352 149.417 223.67C150.579 223.988 151.53 224.534 152.27 225.307C153.007 226.069 153.481 226.984 153.694 228.053L150.505 228.687C150.402 228.17 150.147 227.701 149.741 227.28C149.344 226.845 148.82 226.525 148.17 226.32C147.531 226.112 146.792 226.092 145.953 226.259C145.068 226.435 144.377 226.716 143.88 227.101C143.393 227.473 143.064 227.891 142.893 228.355C142.734 228.817 142.7 229.278 142.792 229.738C142.86 230.082 142.98 230.381 143.149 230.634C143.328 230.873 143.596 231.077 143.952 231.245C144.306 231.402 144.784 231.522 145.386 231.605C145.988 231.689 146.745 231.741 147.657 231.763C149.255 231.803 150.595 231.967 151.68 232.253C152.764 232.539 153.618 232.985 154.24 233.59C154.862 234.195 155.273 234.997 155.472 235.997C155.634 236.813 155.61 237.595 155.4 238.341C155.202 239.086 154.83 239.769 154.285 240.391C153.749 241 153.065 241.53 152.235 241.982C151.414 242.42 150.458 242.748 149.366 242.965C147.723 243.292 146.274 243.275 145.019 242.916C143.765 242.556 142.752 241.969 141.98 241.154C141.209 240.34 140.72 239.416 140.515 238.381L143.721 237.743C143.941 238.608 144.332 239.253 144.895 239.678C145.455 240.093 146.09 240.343 146.8 240.428C147.508 240.503 148.19 240.475 148.845 240.344C149.718 240.171 150.425 239.91 150.966 239.564C151.518 239.215 151.909 238.809 152.139 238.345C152.369 237.881 152.433 237.39 152.33 236.873Z" fill="black"/>
<path d="M108.771 230.292L112.85 227.954C113.634 227.524 114.249 227.078 114.694 226.616C115.153 226.142 115.426 225.463 115.512 224.576C115.58 223.888 115.373 223.238 114.891 222.625C114.41 222.001 113.68 221.641 112.701 221.545C112.024 221.479 111.437 221.581 110.94 221.85C110.443 222.119 110.052 222.505 109.767 223.007C109.483 223.497 109.311 224.051 109.251 224.669C109.199 225.194 109.275 225.749 109.476 226.334C109.678 226.919 109.977 227.537 110.372 228.188C110.768 228.839 111.224 229.531 111.741 230.265L122.379 245.896L118.495 245.516L109.769 232.721C108.995 231.609 108.305 230.594 107.701 229.675C107.097 228.744 106.637 227.857 106.319 227.014C106.013 226.171 105.902 225.319 105.987 224.456C106.117 223.126 106.489 222.032 107.103 221.174C107.73 220.305 108.545 219.678 109.548 219.294C110.551 218.909 111.694 218.78 112.977 218.906C114.225 219.028 115.273 219.384 116.122 219.973C116.984 220.552 117.62 221.274 118.03 222.138C118.441 222.991 118.599 223.901 118.504 224.869C118.424 225.686 118.206 226.406 117.851 227.031C117.496 227.644 117.03 228.193 116.453 228.678C115.887 229.164 115.235 229.63 114.497 230.076L109.072 233.342C108.172 233.878 107.502 234.407 107.062 234.929C106.623 235.451 106.323 235.922 106.164 236.342C106.017 236.763 105.931 237.102 105.906 237.359C105.825 238.187 105.931 238.963 106.225 239.686C106.52 240.41 107.013 241.017 107.707 241.509C108.414 241.991 109.327 242.286 110.446 242.396C111.426 242.492 112.398 242.363 113.363 242.01C114.341 241.647 115.237 241.087 116.053 240.331C116.87 239.563 117.551 238.623 118.096 237.511C118.653 236.388 119.001 235.121 119.139 233.71L122.043 233.994C121.93 235.149 121.713 236.228 121.39 237.233C121.068 238.238 120.63 239.16 120.077 240.001C119.537 240.831 118.875 241.573 118.093 242.226C117.978 242.321 117.884 242.435 117.812 242.57C117.74 242.704 117.646 242.818 117.531 242.913C116.564 243.772 115.415 244.378 114.086 244.73C112.769 245.072 111.469 245.181 110.186 245.055C108.495 244.889 107.061 244.437 105.885 243.697C104.721 242.959 103.86 242.015 103.302 240.866C102.743 239.716 102.532 238.441 102.669 237.042C102.775 235.969 103.095 235.046 103.629 234.274C104.176 233.504 104.886 232.802 105.761 232.169C106.647 231.538 107.65 230.912 108.771 230.292Z" fill="black"/>
<path d="M79.2192 220.993L73.3747 234.763L70.3812 233.493L77.8122 215.985L80.6439 217.187L79.2192 220.993ZM76.6598 225.044L75.4345 224.466C75.9535 223.273 76.6008 222.243 77.3763 221.376C78.1565 220.498 79.0197 219.814 79.9658 219.324C80.912 218.835 81.9036 218.568 82.9405 218.524C83.9929 218.474 85.0476 218.674 86.1048 219.123C86.9677 219.489 87.6941 219.937 88.2837 220.468C88.878 220.987 89.3102 221.603 89.5804 222.316C89.8615 223.034 89.9597 223.852 89.8752 224.771C89.7953 225.679 89.5104 226.711 89.0205 227.865L84.1512 239.337L81.1415 238.06L86.0246 226.555C86.4137 225.638 86.5902 224.847 86.5541 224.183C86.5225 223.507 86.3004 222.936 85.8879 222.468C85.48 221.989 84.8985 221.59 84.1434 221.269C83.3991 220.953 82.6531 220.821 81.9055 220.873C81.1686 220.929 80.4623 221.139 79.7865 221.501C79.1215 221.868 78.5138 222.355 77.9635 222.962C77.4286 223.562 76.994 224.256 76.6598 225.044Z" fill="black"/>
<path d="M51.1981 217.73L64.252 207.819L65.999 209.063L63.851 211.353L50.5726 221.428L48.8685 220.215L51.1981 217.73ZM57.5931 203.079L51.8122 218.383L50.2002 221.163L48.4102 219.888L54.9439 201.193L57.5931 203.079ZM60.7048 224.563L73.0446 214.078L75.6795 215.954L60.1528 228.248L58.3771 226.984L60.7048 224.563ZM66.3857 209.338L61.3608 224.641L59.6945 227.921L58.0048 226.719L63.0838 210.764L64.5241 208.013L66.3857 209.338Z" fill="black"/>
<path d="M35.029 193.892L35.3294 193.621C36.3478 192.703 37.4257 192 38.5629 191.511C39.7089 191.015 40.855 190.755 42.0013 190.731C43.1563 190.7 44.2692 190.92 45.34 191.39C46.4196 191.853 47.4027 192.576 48.2892 193.56C49.1836 194.552 49.805 195.609 50.1533 196.731C50.5182 197.853 50.6253 198.987 50.4746 200.133C50.3404 201.279 49.967 202.396 49.3546 203.485C48.7509 204.565 47.9397 205.565 46.9213 206.483L46.621 206.753C45.6025 207.671 44.5246 208.374 43.3874 208.863C42.2501 209.352 41.1001 209.607 39.9373 209.63C38.791 209.653 37.6781 209.434 36.5985 208.971C35.5355 208.509 34.5568 207.782 33.6624 206.79C32.768 205.798 32.1423 204.744 31.7852 203.631C31.4369 202.509 31.3298 201.375 31.464 200.229C31.6147 199.083 31.992 197.97 32.5957 196.889C33.1995 195.809 34.0106 194.81 35.029 193.892ZM37.5065 196.037L37.2062 196.307C36.5011 196.943 35.9097 197.626 35.432 198.356C34.9631 199.078 34.6382 199.821 34.4576 200.583C34.2848 201.354 34.2867 202.118 34.4632 202.874C34.6484 203.622 35.043 204.331 35.6471 205.001C36.2434 205.663 36.9 206.12 37.6171 206.373C38.3507 206.627 39.106 206.703 39.8829 206.603C40.6598 206.502 41.4318 206.256 42.1989 205.864C42.9825 205.473 43.7269 204.96 44.432 204.325L44.7323 204.054C45.4287 203.426 46.0075 202.747 46.4686 202.016C46.9463 201.285 47.2716 200.535 47.4444 199.764C47.6337 198.994 47.6401 198.231 47.4636 197.475C47.295 196.727 46.9086 196.019 46.3045 195.348C45.7082 194.687 45.0433 194.229 44.3097 193.975C43.5839 193.73 42.8243 193.658 42.0309 193.757C41.254 193.858 40.4776 194.108 39.7018 194.508C38.9347 194.899 38.2029 195.409 37.5065 196.037Z" fill="black"/>
<path d="M25.2485 190.022L45.1585 177.903L46.8585 180.696L23.7954 194.735L22.2416 192.182L25.2485 190.022ZM23.3844 176.176L23.6997 175.984C24.941 175.228 26.1585 174.693 27.3523 174.378C28.5622 174.067 29.7032 173.969 30.7751 174.085C31.8532 174.21 32.825 174.545 33.6907 175.088C34.5725 175.635 35.3089 176.394 35.9 177.365C36.5215 178.386 36.8836 179.387 36.9863 180.367C37.1052 181.351 36.9857 182.315 36.628 183.26C36.2863 184.209 35.7345 185.128 34.9724 186.017C34.2104 186.906 33.2653 187.777 32.1372 188.628L30.7558 189.469C29.4976 190.084 28.2955 190.521 27.1496 190.779C26.0098 191.048 24.94 191.116 23.9403 190.983C22.9466 190.861 22.0351 190.524 21.2055 189.973C20.386 189.415 19.6624 188.621 19.0348 187.59C18.4559 186.639 18.131 185.643 18.0601 184.603C17.9952 183.572 18.1595 182.546 18.5529 181.525C18.9524 180.513 19.5582 179.548 20.3703 178.628C21.1985 177.712 22.2032 176.895 23.3844 176.176ZM25.3998 178.777L25.0845 178.969C24.2737 179.462 23.5616 180.005 22.9484 180.598C22.3413 181.201 21.8741 181.842 21.5468 182.521C21.2195 183.201 21.0653 183.905 21.084 184.635C21.1127 185.358 21.3556 186.095 21.8126 186.846C22.3732 187.767 23.0284 188.404 23.7783 188.757C24.5343 189.12 25.3423 189.286 26.2023 189.257C27.0623 189.227 27.9286 189.084 28.8012 188.827L32.4199 186.624C32.8973 186.169 33.3212 185.671 33.6916 185.13C34.078 184.593 34.3618 184.022 34.5428 183.418C34.74 182.818 34.8002 182.185 34.7236 181.518C34.6531 180.861 34.4046 180.182 33.978 179.482C33.515 178.721 32.9557 178.163 32.3002 177.807C31.6609 177.455 30.9593 177.272 30.1955 177.257C29.4417 177.236 28.6526 177.359 27.8283 177.628C27.0201 177.9 26.2106 178.283 25.3998 178.777Z" fill="black"/>
<path d="M34.0886 156.499L8.5335 165.213L7.47826 162.118L33.0333 153.404L34.0886 156.499Z" fill="black"/>
<path d="M31.8596 149.764L5.72653 156.551L4.90467 153.386L31.0377 146.599L31.8596 149.764Z" fill="black"/>
<path d="M10.4795 130.693L10.8807 130.642C12.2412 130.472 13.5275 130.512 14.7398 130.762C15.9637 131.01 17.0524 131.453 18.006 132.089C18.9712 132.725 19.7584 133.541 20.3675 134.54C20.9883 135.537 21.3808 136.692 21.5452 138.006C21.711 139.332 21.6159 140.554 21.2599 141.674C20.917 142.803 20.356 143.795 19.577 144.648C18.8111 145.511 17.8656 146.214 16.7406 146.756C15.6273 147.297 14.3904 147.653 13.0299 147.823L12.6287 147.873C11.2682 148.043 9.98184 148.003 8.76957 147.754C7.5573 147.504 6.46784 147.055 5.50118 146.409C4.5476 145.772 3.76043 144.955 3.13968 143.958C2.53201 142.971 2.14526 141.815 1.97944 140.489C1.81361 139.164 1.90289 137.942 2.24727 136.824C2.60328 135.705 3.16425 134.714 3.93018 133.85C4.70919 132.997 5.65538 132.3 6.76873 131.759C7.88208 131.218 9.11901 130.863 10.4795 130.693ZM11.2843 133.869L10.8832 133.919C9.94128 134.037 9.06555 134.259 8.25596 134.585C7.458 134.909 6.76689 135.332 6.18262 135.854C5.5998 136.387 5.16453 137.015 4.87679 137.735C4.60069 138.455 4.51864 139.262 4.63065 140.158C4.7412 141.042 5.01817 141.792 5.46155 142.41C5.91802 143.038 6.49367 143.533 7.18849 143.895C7.88331 144.256 8.65734 144.496 9.51058 144.614C10.3769 144.742 11.281 144.747 12.2229 144.629L12.624 144.579C13.5543 144.462 14.4177 144.236 15.2142 143.9C16.0238 143.575 16.72 143.145 17.3028 142.612C17.8987 142.088 18.3405 141.466 18.6282 140.745C18.9174 140.036 19.006 139.233 18.894 138.338C18.7834 137.454 18.4999 136.699 18.0435 136.071C17.5884 135.454 17.007 134.96 16.2991 134.588C15.6043 134.226 14.8244 133.987 13.9596 133.871C13.1063 133.753 12.2146 133.753 11.2843 133.869Z" fill="black"/>
<path d="M17.1801 121.06L1.15421 120.645L1.23836 117.394L20.2515 117.886L20.1696 121.049L17.1801 121.06ZM20.1191 127.079L17.0971 126.984C17.1626 126.716 17.2045 126.459 17.2225 126.213C17.252 125.979 17.2707 125.71 17.2786 125.406C17.298 124.656 17.198 123.991 16.9786 123.411C16.7591 122.831 16.4437 122.336 16.0323 121.927C15.6208 121.518 15.1253 121.188 14.5456 120.939C13.9774 120.701 13.3485 120.539 12.6592 120.45L12.1557 119.523C13.3037 119.553 14.3786 119.692 15.3803 119.941C16.3817 120.201 17.2628 120.581 18.0236 121.082C18.796 121.582 19.3894 122.207 19.8038 122.956C20.2295 123.718 20.4291 124.614 20.4024 125.645C20.3963 125.879 20.36 126.148 20.2936 126.451C20.2388 126.754 20.1807 126.964 20.1191 127.079Z" fill="black"/>
<path d="M4.82782 104.969C4.69557 105.731 4.72922 106.462 4.92875 107.163C5.12828 107.863 5.46332 108.469 5.93385 108.979C6.41593 109.49 7.00412 109.836 7.69842 110.016L7.16942 113.064C6.071 112.814 5.10275 112.26 4.26464 111.401C3.43608 110.555 2.82355 109.527 2.42706 108.316C2.04212 107.108 1.96486 105.84 2.1953 104.512C2.43976 103.103 2.9014 101.917 3.58023 100.952C4.25706 99.999 5.08857 99.2513 6.07476 98.7088C7.05894 98.1779 8.14108 97.8364 9.32117 97.6844C10.5108 97.5459 11.7349 97.5859 12.9934 97.8043L13.7208 97.9305C14.9794 98.1489 16.1396 98.5228 17.2014 99.052C18.2728 99.5947 19.1824 100.282 19.9302 101.113C20.6759 101.956 21.2068 102.941 21.523 104.066C21.8371 105.203 21.872 106.476 21.6275 107.884C21.373 109.351 20.8504 110.58 20.0596 111.573C19.2804 112.567 18.3229 113.287 17.1871 113.733C16.0608 114.191 14.8461 114.337 13.5429 114.171L14.0719 111.122C14.8555 111.199 15.5921 111.101 16.2817 110.828C16.9694 110.567 17.554 110.145 18.0357 109.562C18.5269 108.993 18.8467 108.282 18.995 107.427C19.1653 106.446 19.1123 105.586 18.8359 104.848C18.5691 104.124 18.1407 103.509 17.5507 103.002C16.9703 102.509 16.2967 102.106 15.5301 101.795C14.773 101.497 13.9846 101.277 13.1648 101.135L12.4374 101.008C11.6176 100.866 10.7953 100.807 9.9706 100.83C9.14586 100.853 8.37714 101 7.66443 101.268C6.94971 101.549 6.33896 101.984 5.83218 102.574C5.33493 103.177 5.00015 103.976 4.82782 104.969Z" fill="black"/>
<path d="M10.8097 90.0069C11.2514 90.1638 11.6953 90.2094 12.1413 90.144C12.5945 90.0934 13.0816 89.8249 13.6025 89.3383C14.1305 88.8667 14.7203 88.0812 15.3717 86.9819C15.9344 86.0625 16.5024 85.2507 17.0757 84.5464C17.6451 83.8532 18.2341 83.2976 18.8426 82.8794C19.4473 82.4723 20.0786 82.2177 20.7366 82.1155C21.3947 82.0134 22.0936 82.0936 22.8336 82.3563C23.5403 82.6072 24.1536 82.999 24.6733 83.5317C25.1891 84.0755 25.588 84.7207 25.87 85.4675C26.1481 86.2253 26.2802 87.0618 26.2661 87.977C26.2521 88.8923 26.0667 89.8524 25.7099 90.8573C25.2003 92.293 24.5111 93.4286 23.6424 94.2643C22.7737 95.0999 21.8181 95.6374 20.7757 95.8766C19.7443 96.1198 18.715 96.0591 17.688 95.6945L18.7759 92.6299C19.2729 92.8063 19.8062 92.8278 20.3759 92.6943C20.9527 92.5757 21.4957 92.2897 22.0049 91.8363C22.5101 91.3939 22.9058 90.7696 23.192 89.9634C23.4939 89.1131 23.6064 88.3758 23.5296 87.7516C23.4598 87.1424 23.2693 86.6458 22.958 86.2617C22.6428 85.8886 22.2643 85.6237 21.8225 85.4668C21.4912 85.3492 21.1735 85.2986 20.8692 85.3149C20.5721 85.3462 20.2602 85.4718 19.9334 85.6915C19.6178 85.9152 19.27 86.2643 18.8901 86.7388C18.5103 87.2133 18.0775 87.8368 17.5918 88.6095C16.7391 89.9606 15.9122 91.0288 15.1112 91.8138C14.3102 92.5989 13.4906 93.1038 12.6523 93.3285C11.8139 93.5531 10.9144 93.4949 9.95361 93.1538C9.16952 92.8755 8.51051 92.455 7.97656 91.8924C7.43869 91.3408 7.0421 90.6715 6.78678 89.8845C6.53858 89.1124 6.43291 88.2542 6.46975 87.3097C6.51371 86.3803 6.72192 85.391 7.09437 84.3418C7.65501 82.7626 8.41101 81.5263 9.36236 80.633C10.3137 79.7396 11.3366 79.1701 12.4311 78.9245C13.5256 78.6788 14.5698 78.7324 15.5637 79.0853L14.4698 82.1664C13.6148 81.9126 12.8605 81.9184 12.2067 82.1837C11.5639 82.4529 11.024 82.8705 10.5868 83.4366C10.1606 84.0065 9.83575 84.6062 9.61228 85.2357C9.31432 86.075 9.1758 86.8155 9.19672 87.4571C9.21372 88.1098 9.36255 88.6538 9.64322 89.0892C9.92389 89.5246 10.3127 89.8305 10.8097 90.0069Z" fill="black"/>
<path d="M38.765 55.9592L38.6847 60.6605C38.6523 61.5537 38.7207 62.3102 38.89 62.9299C39.0617 63.566 39.506 64.1483 40.223 64.6767C40.7795 65.0869 41.4441 65.2419 42.2168 65.1417C42.9988 65.0484 43.6819 64.6056 44.2659 63.8132C44.6692 63.2661 44.8825 62.71 44.9059 62.1449C44.9293 61.5799 44.7983 61.0466 44.5129 60.545C44.2368 60.0504 43.8488 59.6189 43.3489 59.2504C42.9244 58.9375 42.4092 58.718 41.8035 58.5918C41.1977 58.4656 40.514 58.4057 39.7523 58.412C38.9906 58.4184 38.1624 58.4558 37.2676 58.5242L18.394 59.6591L20.7093 56.5178L36.1672 55.5731C37.5187 55.4774 38.744 55.4051 39.8428 55.3561C40.9511 55.314 41.9489 55.3725 42.8362 55.5315C43.7165 55.6999 44.5057 56.0414 45.2038 56.5559C46.2792 57.3485 47.0284 58.2282 47.4513 59.195C47.8767 60.1782 47.9977 61.1991 47.8144 62.2577C47.631 63.3163 47.1569 64.3645 46.3921 65.4021C45.6482 66.4115 44.8057 67.1299 43.8647 67.5573C42.9262 68.0011 41.9808 68.1777 41.0284 68.0873C40.0855 68.0037 39.2226 67.6734 38.4396 67.0963C37.7793 66.6096 37.2719 66.0537 36.9174 65.4285C36.5724 64.8103 36.3394 64.129 36.2183 63.3847C36.0903 62.6498 36.0239 61.8511 36.019 60.9886L35.9907 54.657C35.9914 53.6093 35.88 52.7629 35.6567 52.1179C35.4333 51.4728 35.1819 50.9745 34.9023 50.6229C34.6159 50.2808 34.3689 50.0332 34.1614 49.8803C33.4916 49.3866 32.7707 49.0809 31.9985 48.9631C31.2264 48.8454 30.4516 48.9585 29.674 49.3025C28.8988 49.6629 28.1775 50.2959 27.51 51.2015C26.926 51.9939 26.5386 52.8948 26.3478 53.9042C26.1595 54.9301 26.1812 55.9869 26.4129 57.0749C26.6541 58.1698 27.113 59.2359 27.7897 60.2733C28.4688 61.327 29.3791 62.2745 30.5205 63.1158L28.7893 65.4647C27.8554 64.7764 27.0394 64.0367 26.3414 63.2456C25.6434 62.4545 25.0749 61.6061 24.6361 60.7004C24.1998 59.811 23.9012 58.8631 23.7405 57.8566C23.7181 57.7091 23.6678 57.5701 23.5893 57.4395C23.5109 57.3089 23.4605 57.1698 23.4382 57.0224C23.1955 55.7517 23.2632 54.455 23.6413 53.1323C24.0218 51.8259 24.5944 50.6539 25.3592 49.6162C26.3674 48.2484 27.4899 47.2488 28.7269 46.6173C29.9569 45.9953 31.2087 45.7388 32.4823 45.8477C33.7559 45.9566 34.9587 46.4282 36.0907 47.2625C36.9586 47.9022 37.5871 48.6493 37.9763 49.5039C38.3585 50.3679 38.5975 51.3374 38.6932 52.4124C38.7819 53.4969 38.8059 54.6792 38.765 55.9592Z" fill="black"/>
<path d="M61.8825 35.3357L53.0466 23.2652L55.6707 21.3444L66.905 36.6914L64.4229 38.5084L61.8825 35.3357ZM59.7136 31.0634L60.8369 30.3065C61.5958 31.363 62.1493 32.4465 62.4974 33.5568C62.8524 34.6766 62.9979 35.7683 62.934 36.8316C62.8701 37.895 62.5914 38.8833 62.098 39.7964C61.602 40.7258 60.8907 41.5297 59.964 42.2081C59.2075 42.7618 58.4505 43.1562 57.6931 43.3912C56.9425 43.6356 56.1918 43.6914 55.441 43.5584C54.6807 43.4324 53.9275 43.0979 53.1814 42.5548C52.4422 42.0212 51.7023 41.2485 50.9617 40.2367L43.6001 30.1803L46.2383 28.249L53.6206 38.3338C54.209 39.1376 54.7979 39.6941 55.3873 40.0033C55.9837 40.3219 56.5884 40.4239 57.2015 40.3091C57.8215 40.2038 58.4625 39.9089 59.1244 39.4243C59.7768 38.9467 60.2722 38.3735 60.6104 37.7047C60.9392 37.0429 61.121 36.3289 61.1556 35.5629C61.1809 34.8037 61.0738 34.0325 60.8344 33.2492C60.5925 32.4823 60.2189 31.7537 59.7136 31.0634Z" fill="black"/>
<path d="M79.0322 12.9365L80.8621 29.224L78.8993 30.0879L78.032 27.0703L76.1763 10.506L78.0909 9.66333L79.0322 12.9365ZM88.3433 25.9311L78.157 13.1296L76.5946 10.3219L78.6057 9.43672L91.3197 24.621L88.3433 25.9311ZM68.296 17.6045L70.9837 33.572L68.0234 34.875L65.4131 15.2436L67.408 14.3654L68.296 17.6045ZM78.4649 30.2791L67.8925 18.1278L65.9279 15.0169L67.8264 14.1813L78.9311 26.713L80.5564 29.3585L78.4649 30.2791Z" fill="black"/>
<path d="M107.788 11.2525L107.866 11.6491C108.133 12.9939 108.186 14.2799 108.023 15.5069C107.863 16.7454 107.499 17.863 106.933 18.8597C106.368 19.8678 105.61 20.7114 104.657 21.3904C103.707 22.0808 102.583 22.555 101.284 22.8129C99.9734 23.0731 98.7473 23.0657 97.6055 22.7907C96.4544 22.5294 95.4255 22.0407 94.5186 21.3247C93.6026 20.6225 92.8339 19.7297 92.2126 18.6464C91.5935 17.5746 91.1505 16.3663 90.8834 15.0214L90.8047 14.6249C90.5376 13.28 90.4854 11.9941 90.648 10.7671C90.8105 9.54003 91.1798 8.42129 91.7557 7.41086C92.3225 6.4142 93.0809 5.57064 94.031 4.88018C94.9719 4.20349 96.0976 3.73504 97.4079 3.47484C98.7183 3.21464 99.9432 3.21632 101.083 3.47989C102.225 3.75494 103.254 4.24358 104.17 4.9458C105.076 5.6618 105.839 6.55571 106.458 7.62754C107.077 8.69937 107.521 9.9077 107.788 11.2525ZM104.677 12.2825L104.598 11.8859C104.413 10.9549 104.129 10.0972 103.746 9.31302C103.366 8.54029 102.895 7.8812 102.332 7.33575C101.759 6.79258 101.102 6.40327 100.362 6.16784C99.6246 5.94389 98.8134 5.9198 97.9283 6.09555C97.0547 6.26901 96.3257 6.59896 95.7413 7.08538C95.1477 7.58559 94.6952 8.19515 94.384 8.91407C94.0728 9.63299 93.889 10.4222 93.8326 11.2816C93.7671 12.1549 93.8267 13.057 94.0116 13.9881L94.0904 14.3846C94.273 15.3042 94.5602 16.1492 94.9522 16.9196C95.3349 17.7038 95.8132 18.3675 96.387 18.9107C96.9516 19.4677 97.6037 19.8638 98.3434 20.0993C99.0717 20.337 99.8783 20.368 100.763 20.1922C101.637 20.0188 102.371 19.6819 102.964 19.1817C103.546 18.6838 103.998 18.0685 104.318 17.3358C104.629 16.6169 104.812 15.8219 104.866 14.951C104.922 14.0915 104.859 13.202 104.677 12.2825Z" fill="black"/>
<path d="M116.119 4.83224L116.336 28.1398L113.066 28.1702L112.815 1.17141L115.803 1.14361L116.119 4.83224ZM128.967 10.3204L128.971 10.6895C128.984 12.1426 128.821 13.4625 128.48 14.6493C128.128 15.8479 127.628 16.878 126.98 17.7396C126.32 18.6012 125.535 19.2648 124.625 19.7303C123.704 20.2077 122.675 20.4516 121.538 20.4622C120.343 20.4733 119.298 20.2721 118.403 19.8585C117.497 19.4568 116.73 18.8604 116.101 18.0693C115.461 17.2901 114.954 16.3455 114.581 15.2357C114.207 14.1258 113.943 12.8684 113.79 11.4636L113.775 9.84645C113.891 8.45078 114.131 7.19458 114.496 6.07786C114.848 4.96125 115.338 4.00744 115.963 3.21643C116.577 2.42553 117.333 1.81495 118.231 1.3847C119.13 0.966165 120.183 0.751284 121.39 0.740055C122.503 0.729698 123.524 0.960437 124.455 1.43227C125.373 1.90422 126.17 2.57066 126.846 3.43159C127.511 4.29264 128.03 5.30738 128.404 6.47583C128.767 7.6561 128.954 8.93761 128.967 10.3204ZM125.701 10.7199L125.698 10.3508C125.689 9.4016 125.587 8.51189 125.392 7.68164C125.185 6.8515 124.873 6.12194 124.457 5.49297C124.041 4.864 123.515 4.37083 122.879 4.01345C122.243 3.66779 121.486 3.49905 120.607 3.50722C119.529 3.51725 118.646 3.75399 117.959 4.21743C117.26 4.68099 116.703 5.28971 116.288 6.0436C115.873 6.79749 115.553 7.61496 115.327 8.49601L115.366 12.7322C115.513 13.3754 115.724 13.9945 115.999 14.5896C116.262 15.1966 116.607 15.7325 117.033 16.1973C117.448 16.6739 117.961 17.05 118.573 17.3256C119.173 17.6012 119.884 17.7353 120.704 17.7276C121.594 17.7194 122.36 17.5247 123.001 17.1437C123.631 16.7746 124.147 16.2659 124.552 15.6175C124.956 14.9809 125.254 14.2398 125.445 13.3943C125.625 12.5605 125.71 11.6691 125.701 10.7199Z" fill="black"/>
<path d="M140.389 29.5898L145.988 3.17663L149.186 3.85459L143.588 30.2678L140.389 29.5898Z" fill="black"/>
<path d="M147.316 31.1233L154.866 5.20038L158.005 6.11464L150.455 32.0376L147.316 31.1233Z" fill="black"/>
<path d="M174.644 22.5223L174.482 22.8926C173.932 24.1483 173.239 25.2329 172.403 26.1463C171.563 27.0704 170.626 27.7791 169.591 28.2723C168.551 28.7762 167.446 29.0342 166.277 29.0462C165.103 29.0689 163.909 28.8145 162.696 28.2829C161.473 27.7467 160.471 27.0391 159.692 26.1603C158.897 25.2874 158.333 24.298 157.999 23.192C157.649 22.0919 157.53 20.9199 157.64 19.6759C157.745 18.4427 158.073 17.1982 158.624 15.9424L158.786 15.5721C159.336 14.3163 160.029 13.2317 160.864 12.3183C161.7 11.405 162.643 10.6987 163.693 10.1994C164.728 9.70623 165.833 9.44826 167.007 9.42554C168.166 9.40884 169.357 9.66861 170.581 10.2049C171.804 10.7411 172.808 11.4433 173.592 12.3114C174.371 13.1903 174.935 14.1797 175.285 15.2798C175.619 16.3858 175.733 17.5555 175.628 18.7887C175.522 20.022 175.195 21.2665 174.644 22.5223ZM171.503 21.5872L171.666 21.2169C172.047 20.3475 172.305 19.4817 172.439 18.6196C172.569 17.7681 172.56 16.9579 172.411 16.1888C172.251 15.415 171.935 14.72 171.463 14.1037C170.986 13.4981 170.335 13.0142 169.508 12.652C168.693 12.2945 167.906 12.1481 167.148 12.2127C166.375 12.2833 165.655 12.5244 164.989 12.936C164.322 13.3476 163.72 13.8897 163.182 14.5624C162.629 15.2411 162.161 16.0151 161.78 16.8845L161.618 17.2548C161.242 18.1135 160.994 18.9709 160.875 19.827C160.74 20.6892 160.753 21.5071 160.912 22.2809C161.057 23.0607 161.365 23.7588 161.837 24.3751C162.298 24.9867 162.942 25.4736 163.769 25.8358C164.584 26.1933 165.379 26.3367 166.152 26.2661C166.914 26.1908 167.636 25.9443 168.318 25.5267C168.985 25.1151 169.589 24.5676 170.132 23.8842C170.67 23.2115 171.127 22.4459 171.503 21.5872Z" fill="black"/>
<path d="M179.488 33.21L188.05 19.6563L190.799 21.393L180.641 37.4731L177.966 35.7833L179.488 33.21ZM172.813 32.6526L174.442 30.1058C174.639 30.2993 174.838 30.4667 175.04 30.608C175.225 30.753 175.447 30.9068 175.705 31.0696C176.339 31.4701 176.961 31.7246 177.572 31.8331C178.182 31.9416 178.769 31.9239 179.331 31.7801C179.893 31.6362 180.43 31.3791 180.941 31.0089C181.436 30.6423 181.897 30.1856 182.326 29.6385L183.381 29.6809C182.767 30.6518 182.097 31.5039 181.371 32.237C180.634 32.9639 179.857 33.526 179.037 33.9233C178.212 34.3305 177.371 34.5203 176.516 34.4926C175.644 34.4685 174.772 34.1812 173.9 33.6304C173.702 33.5052 173.489 33.3365 173.263 33.1243C173.031 32.9219 172.88 32.7647 172.813 32.6526Z" fill="black"/>
<path d="M199.634 30.8381C199.048 30.3344 198.402 29.9888 197.698 29.8015C196.994 29.6141 196.303 29.592 195.624 29.7352C194.937 29.8872 194.339 30.2153 193.829 30.7196L191.481 28.7045C192.259 27.8891 193.231 27.3413 194.398 27.0612C195.548 26.7824 196.745 26.7826 197.988 27.0619C199.223 27.35 200.352 27.933 201.375 28.8107C202.46 29.7419 203.242 30.746 203.723 31.8229C204.195 32.8923 204.412 33.9894 204.373 35.1142C204.325 36.2315 204.065 37.3358 203.591 38.4274C203.101 39.5201 202.44 40.5512 201.608 41.5204L201.127 42.0806C200.295 43.0498 199.38 43.855 198.382 44.4962C197.367 45.1387 196.311 45.5682 195.214 45.7848C194.108 45.9937 192.991 45.9459 191.862 45.6413C190.725 45.3291 189.614 44.7073 188.529 43.7761C187.399 42.8068 186.611 41.7283 186.163 40.5408C185.708 39.3622 185.579 38.1711 185.778 36.9676C185.961 35.7653 186.458 34.6471 187.268 33.613L189.616 35.628C189.149 36.262 188.856 36.945 188.737 37.677C188.609 38.4015 188.672 39.1197 188.926 39.8316C189.163 40.5449 189.611 41.1839 190.269 41.7487C191.025 42.3975 191.79 42.7921 192.566 42.9325C193.324 43.0741 194.072 43.0213 194.81 42.7739C195.531 42.5278 196.221 42.1553 196.881 41.6562C197.525 41.1584 198.117 40.5938 198.659 39.9625L199.14 39.4023C199.682 38.771 200.154 38.0951 200.556 37.3747C200.959 36.6542 201.227 35.9191 201.361 35.1693C201.486 34.4118 201.425 33.6644 201.177 32.927C200.913 32.1908 200.399 31.4945 199.634 30.8381Z" fill="black"/>
<path d="M209.424 43.6367C209.063 43.9359 208.796 44.2938 208.624 44.7105C208.436 45.1256 208.417 45.6815 208.568 46.378C208.703 47.0731 209.076 47.9818 209.686 49.1042C210.188 50.0583 210.595 50.9619 210.906 51.8149C211.21 52.6589 211.386 53.4494 211.433 54.1862C211.473 54.914 211.369 55.5867 211.12 56.2042C210.871 56.8218 210.444 57.3811 209.839 57.8822C209.262 58.3608 208.611 58.687 207.888 58.8607C207.157 59.0253 206.398 59.0376 205.612 58.8976C204.819 58.7485 204.033 58.4336 203.254 57.953C202.475 57.4723 201.745 56.8215 201.064 56.0005C200.092 54.8277 199.469 53.6542 199.196 52.4802C198.923 51.3061 198.951 50.2101 199.279 49.1922C199.598 48.1817 200.177 47.3287 201.016 46.6332L203.092 49.1367C202.686 49.4733 202.394 49.9204 202.217 50.4781C202.024 51.0343 201.992 51.6471 202.12 52.3167C202.242 52.9772 202.575 53.6367 203.121 54.2953C203.697 54.99 204.273 55.4641 204.848 55.7177C205.407 55.9697 205.932 56.0603 206.421 55.9896C206.903 55.9098 207.324 55.7203 207.685 55.4212C207.956 55.1968 208.162 54.9497 208.304 54.68C208.429 54.4088 208.481 54.0766 208.459 53.6834C208.429 53.2977 208.307 52.8202 208.094 52.251C207.881 51.6818 207.567 50.9908 207.152 50.178C206.428 48.7537 205.933 47.4966 205.669 46.4066C205.405 45.3166 205.391 44.354 205.627 43.5189C205.863 42.6837 206.374 41.9408 207.159 41.2902C207.799 40.7592 208.498 40.4084 209.255 40.2378C210.004 40.0582 210.782 40.0602 211.589 40.2438C212.379 40.4259 213.17 40.7745 213.963 41.2897C214.738 41.8034 215.482 42.4887 216.192 43.3458C217.262 44.6359 217.937 45.9183 218.217 47.1929C218.497 48.4675 218.463 49.6378 218.113 50.7037C217.764 51.7696 217.183 52.6391 216.371 53.3122L214.285 50.7951C214.94 50.1906 215.322 49.5396 215.428 48.8422C215.526 48.1522 215.444 47.4746 215.182 46.8092C214.91 46.1513 214.561 45.5653 214.135 45.051C213.567 44.3653 213.002 43.8672 212.44 43.5567C211.87 43.2371 211.327 43.0864 210.809 43.1046C210.291 43.1228 209.83 43.3001 209.424 43.6367Z" fill="black"/>
</svg>
