<svg width="1809" height="416" viewBox="0 0 1809 416" fill="none" xmlns="http://www.w3.org/2000/svg">
<path d="M1808 208C1808 222.045 1801.82 235.838 1789.88 249.254C1777.93 262.677 1760.27 275.673 1737.44 288.084C1691.79 312.907 1625.66 335.292 1543.85 354.104C1380.26 391.723 1154.22 415 904.5 415C654.782 415 428.735 391.723 265.146 354.104C183.343 335.292 117.213 312.907 71.5577 288.084C48.7295 275.673 31.0675 262.677 19.1233 249.254C7.1845 235.838 1 222.045 1 208C1 193.955 7.1845 180.162 19.1233 166.746C31.0675 153.323 48.7295 140.327 71.5577 127.916C117.213 103.093 183.343 80.7078 265.146 61.8964C428.735 24.2771 654.782 1 904.5 1C1154.22 1 1380.26 24.2771 1543.85 61.8964C1625.66 80.7078 1691.79 103.093 1737.44 127.916C1760.27 140.327 1777.93 153.323 1789.88 166.746C1801.82 180.162 1808 193.955 1808 208Z" fill="#F5F9EF" stroke="black" stroke-width="2"/>
</svg>
