<svg width="512" height="72" viewBox="0 0 512 72" fill="none" xmlns="http://www.w3.org/2000/svg">
<path fill-rule="evenodd" clip-rule="evenodd" d="M81.0001 0C60 0 60 1 60 36C60 72 60 72 81.0002 72V62C72.0001 62 72.0001 62 72.0001 36C72.0001 11.0465 72.0001 10.0465 81.0001 10.0465V0ZM93.0003 62C102 62 102 62 102 36C102 11.0465 102 10.0465 93 10.0465V0C114 0 114 1 114 36C114 72 114 72 93.0003 72V62Z" fill="black"/>
<path fill-rule="evenodd" clip-rule="evenodd" d="M329 0C308 0 308 1 308 36C308 72 308 72 329 72V62C320 62 320 62 320 36C320 11.0465 320 10.0465 329 10.0465V0ZM341 62C350 62 350 62 350 36C350 11.0465 350 10.0465 341 10.0465V0C362 0 362 1 362 36C362 72 362 72 341 72V62Z" fill="black"/>
<path fill-rule="evenodd" clip-rule="evenodd" d="M479 0C458 0 458 1 458 36C458 72 458 72 479 72V60C470 60 470 62 470 36C470 11.0465 470 10.0465 479 10.0465V0ZM491 60C500 60 500 62 500 36C500 11.0465 500 10.0465 491 10.0465V0C512 0 512 1 512 36C512 72 512 72 491 72V60Z" fill="black"/>
<path d="M163.526 36.1581L175.306 71.5H164.36L152.474 35.8419L152.36 35.5H152H138H137.5V36V71.5H126.5V24.5H147H147.011C151.752 24.5 155.321 24.5 158.002 24.4059C160.672 24.3122 162.516 24.1246 163.776 23.7268C164.413 23.5255 164.927 23.2629 165.328 22.911C165.734 22.5548 166.001 22.1274 166.175 21.6347C166.5 20.7097 166.5 19.5117 166.5 18.0849L166.5 18L166.5 17.9151C166.5 16.4883 166.5 15.2903 166.175 14.3653C166.001 13.8726 165.734 13.4452 165.328 13.089C164.927 12.7371 164.413 12.4745 163.776 12.2732C162.516 11.8754 160.672 11.6878 158.002 11.5941C155.321 11.5 151.752 11.5 147.011 11.5H147H126.5V0.5H147C154.258 0.5 159.674 0.500288 163.731 0.780065C167.803 1.06088 170.412 1.61999 172.111 2.67482C173.763 3.70004 174.617 5.23544 175.055 7.68186C175.498 10.1589 175.5 13.4806 175.5 18C175.5 22.5082 175.5 25.861 175.314 28.3693C175.127 30.892 174.756 32.4641 174.084 33.4726C173.439 34.4394 172.468 34.9568 170.855 35.2255C169.218 35.4984 167.018 35.5 164 35.5H163.306L163.526 36.1581Z" fill="black" stroke="black"/>
<path d="M11.5 36V71.5H0.5V24.5H19H19.0112C23.7517 24.5 27.3213 24.5 30.0019 24.4059C32.6724 24.3122 34.516 24.1246 35.7756 23.7268C36.4131 23.5255 36.9266 23.2629 37.3278 22.911C37.7339 22.5548 38.0014 22.1274 38.1748 21.6347C38.5002 20.7097 38.5001 19.5117 38.5 18.0849L38.5 18L38.5 17.9151C38.5001 16.4883 38.5002 15.2903 38.1748 14.3653C38.0014 13.8726 37.7339 13.4452 37.3278 13.089C36.9266 12.7371 36.4131 12.4745 35.7756 12.2732C34.516 11.8754 32.6724 11.6878 30.0019 11.5941C27.3213 11.5 23.7518 11.5 19.0114 11.5H19H0.5V0.5H22C28.5085 0.5 33.3605 0.500358 36.9929 0.779777C40.6393 1.06027 42.9584 1.61778 44.4654 2.6611C45.934 3.67781 46.705 5.21139 47.1001 7.67298C47.4985 10.1554 47.5 13.4825 47.5 18C47.5 22.5095 47.4995 25.8587 47.2831 28.3632C47.0656 30.8798 46.6355 32.4399 45.8553 33.443C45.0959 34.4194 43.9367 34.9504 42.023 35.2238C40.098 35.4988 37.5156 35.5 34 35.5H12H11.5V36Z" fill="black" stroke="black"/>
<path d="M248 12V0H296V12H248Z" fill="black"/>
<path d="M260 72H248V24H284V36H260V72Z" fill="black"/>
<path fill-rule="evenodd" clip-rule="evenodd" d="M218 72H206V24H218V72Z" fill="black"/>
<path d="M188 12V0H236V12H188Z" fill="black"/>
<path fill-rule="evenodd" clip-rule="evenodd" d="M422 72H374L374 0H386V60H422V72Z" fill="black"/>
<path fill-rule="evenodd" clip-rule="evenodd" d="M446 72H434V0H446V72Z" fill="black"/>
</svg>
